{"glyphs":{"0":{"ha":1389,"x_min":-6,"x_max":1218,"o":"m -6 697 l 168 697 l 168 871 l 342 871 l 342 1044 l 871 1044 l 871 871 l 1044 871 l 1044 697 l 1218 697 l 1218 342 l 1044 342 l 1044 168 l 871 168 l 871 -6 l 342 -6 l 342 168 l 168 168 l 168 342 l -6 342 l -6 697 m 350 350 l 524 350 l 524 176 l 863 176 l 863 689 l 689 689 l 689 863 l 350 863 l 350 350 z "},"1":{"ha":1389,"x_min":168,"x_max":1218,"o":"m 342 871 l 515 871 l 515 1044 l 871 1044 l 871 176 l 1218 176 l 1218 -6 l 168 -6 l 168 176 l 515 176 l 515 689 l 342 689 l 342 871 z "},"2":{"ha":1389,"x_min":-6,"x_max":1218,"o":"m -6 871 l 168 871 l 168 1044 l 1044 1044 l 1044 871 l 1218 871 l 1218 515 l 871 515 l 871 342 l 524 342 l 524 176 l 1218 176 l 1218 -6 l -6 -6 l -6 350 l 168 350 l 168 524 l 689 524 l 689 697 l 863 697 l 863 863 l 350 863 l 350 689 l -6 689 l -6 871 z "},"3":{"ha":1389,"x_min":-6,"x_max":1218,"o":"m 168 1044 l 1218 1044 l 1218 863 l 1044 863 l 1044 689 l 871 689 l 871 524 l 1218 524 l 1218 168 l 1044 168 l 1044 -6 l 168 -6 l 168 168 l -6 168 l -6 350 l 350 350 l 350 176 l 863 176 l 863 515 l 342 515 l 342 697 l 689 697 l 689 863 l 168 863 l 168 1044 z "},"4":{"ha":1389,"x_min":-6,"x_max":1218,"o":"m -6 524 l 168 524 l 168 697 l 342 697 l 342 871 l 515 871 l 515 1044 l 1044 1044 l 1044 350 l 1218 350 l 1218 168 l 1044 168 l 1044 -6 l 689 -6 l 689 168 l -6 168 l -6 524 m 350 515 l 350 350 l 689 350 l 689 689 l 524 689 l 524 515 l 350 515 z "},"5":{"ha":1389,"x_min":-6,"x_max":1218,"o":"m -6 1044 l 1044 1044 l 1044 863 l 350 863 l 350 697 l 1044 697 l 1044 524 l 1218 524 l 1218 168 l 1044 168 l 1044 -6 l 168 -6 l 168 168 l -6 168 l -6 350 l 350 350 l 350 176 l 863 176 l 863 515 l -6 515 l -6 1044 z "},"6":{"ha":1389,"x_min":-6,"x_max":1218,"o":"m -6 871 l 168 871 l 168 1044 l 1044 1044 l 1044 863 l 350 863 l 350 697 l 1044 697 l 1044 524 l 1218 524 l 1218 168 l 1044 168 l 1044 -6 l 168 -6 l 168 168 l -6 168 l -6 871 m 350 176 l 863 176 l 863 515 l 350 515 l 350 176 z "},"7":{"ha":1389,"x_min":-6,"x_max":1218,"o":"m -6 1044 l 1218 1044 l 1218 689 l 1044 689 l 1044 515 l 871 515 l 871 342 l 697 342 l 697 -6 l 342 -6 l 342 350 l 515 350 l 515 524 l 689 524 l 689 697 l 863 697 l 863 863 l 350 863 l 350 689 l -6 689 l -6 1044 z "},"8":{"ha":1389,"x_min":-6,"x_max":1218,"o":"m -6 871 l 168 871 l 168 1044 l 1044 1044 l 1044 871 l 1218 871 l 1218 689 l 1044 689 l 1044 524 l 1218 524 l 1218 168 l 1044 168 l 1044 -6 l 168 -6 l 168 168 l -6 168 l -6 524 l 168 524 l 168 689 l -6 689 l -6 871 m 350 176 l 863 176 l 863 515 l 350 515 l 350 176 m 350 697 l 863 697 l 863 863 l 350 863 l 350 697 z "},"9":{"ha":1389,"x_min":-6,"x_max":1218,"o":"m -6 871 l 168 871 l 168 1044 l 1044 1044 l 1044 871 l 1218 871 l 1218 168 l 1044 168 l 1044 -6 l 168 -6 l 168 176 l 863 176 l 863 342 l 168 342 l 168 515 l -6 515 l -6 871 m 350 524 l 863 524 l 863 863 l 350 863 l 350 524 z "}," ":{"ha":1389,"x_min":0,"x_max":0,"o":""},"'":{"ha":1389,"x_min":168,"x_max":524,"o":"m 168 1218 l 524 1218 l 524 689 l 350 689 l 350 515 l 168 515 l 168 697 l 342 697 l 342 863 l 168 863 l 168 1218 z "},"(":{"ha":1389,"x_min":515,"x_max":1218,"o":"m 515 871 l 689 871 l 689 1044 l 863 1044 l 863 1218 l 1218 1218 l 1218 1036 l 871 1036 l 871 863 l 697 863 l 697 350 l 871 350 l 871 176 l 1218 176 l 1218 -6 l 863 -6 l 863 168 l 689 168 l 689 342 l 515 342 l 515 871 z "},")":{"ha":1389,"x_min":-6,"x_max":697,"o":"m -6 1218 l 350 1218 l 350 1044 l 524 1044 l 524 871 l 697 871 l 697 342 l 524 342 l 524 168 l 350 168 l 350 -6 l -6 -6 l -6 176 l 342 176 l 342 350 l 515 350 l 515 863 l 342 863 l 342 1036 l -6 1036 l -6 1218 z "},"+":{"ha":1389,"x_min":168,"x_max":1044,"o":"m 168 697 l 515 697 l 515 1044 l 697 1044 l 697 697 l 1044 697 l 1044 515 l 697 515 l 697 168 l 515 168 l 515 515 l 168 515 l 168 697 z "},",":{"ha":1389,"x_min":168,"x_max":524,"o":"m 168 524 l 524 524 l 524 -6 l 350 -6 l 350 -179 l 168 -179 l 168 3 l 342 3 l 342 168 l 168 168 l 168 524 z "},"-":{"ha":1389,"x_min":168,"x_max":1218,"o":"m 168 524 l 1218 524 l 1218 342 l 168 342 l 168 524 z "},".":{"ha":1389,"x_min":168,"x_max":524,"o":"m 168 350 l 524 350 l 524 -6 l 168 -6 l 168 350 z "},"/":{"ha":1389,"x_min":-6,"x_max":1218,"o":"m -6 3 l 168 3 l 168 176 l 342 176 l 342 350 l 515 350 l 515 524 l 689 524 l 689 697 l 863 697 l 863 871 l 1036 871 l 1036 1044 l 1218 1044 l 1218 863 l 1044 863 l 1044 689 l 871 689 l 871 515 l 697 515 l 697 342 l 524 342 l 524 168 l 350 168 l 350 -6 l 176 -6 l 176 -179 l -6 -179 l -6 3 z "},":":{"ha":1389,"x_min":515,"x_max":871,"o":"m 515 1044 l 871 1044 l 871 689 l 515 689 l 515 1044 m 515 350 l 871 350 l 871 -6 l 515 -6 l 515 350 z "},";":{"ha":1389,"x_min":515,"x_max":871,"o":"m 515 524 l 871 524 l 871 -6 l 697 -6 l 697 -179 l 515 -179 l 515 3 l 689 3 l 689 168 l 515 168 l 515 524 m 515 1044 l 871 1044 l 871 689 l 515 689 l 515 1044 z "},"?":{"ha":1389,"x_min":-6,"x_max":1392,"o":"m -6 871 l 168 871 l 168 1044 l 1218 1044 l 1218 871 l 1392 871 l 1392 689 l 1218 689 l 1218 515 l 871 515 l 871 342 l 515 342 l 515 524 l 689 524 l 689 697 l 863 697 l 863 863 l 524 863 l 524 689 l 350 689 l 350 515 l -6 515 l -6 871 m 515 176 l 871 176 l 871 -179 l 515 -179 l 515 176 z "},"A":{"ha":1389,"x_min":-6,"x_max":1218,"o":"m -6 350 l 168 350 l 168 697 l 342 697 l 342 1044 l 515 1044 l 515 1218 l 697 1218 l 697 1044 l 871 1044 l 871 697 l 1044 697 l 1044 350 l 1218 350 l 1218 -6 l 1036 -6 l 1036 342 l 176 342 l 176 -6 l -6 -6 l -6 350 m 689 1036 l 524 1036 l 524 689 l 350 689 l 350 524 l 863 524 l 863 689 l 689 689 l 689 1036 z "},"B":{"ha":1389,"x_min":-6,"x_max":1218,"o":"m -6 1218 l 871 1218 l 871 1044 l 1044 1044 l 1044 524 l 1218 524 l 1218 168 l 1044 168 l 1044 -6 l -6 -6 l -6 1218 m 176 176 l 1036 176 l 1036 515 l 176 515 l 176 176 m 176 697 l 863 697 l 863 1036 l 176 1036 l 176 697 z "},"C":{"ha":1389,"x_min":-6,"x_max":1218,"o":"m -6 871 l 168 871 l 168 1044 l 342 1044 l 342 1218 l 1044 1218 l 1044 1044 l 1218 1044 l 1218 863 l 1036 863 l 1036 1036 l 350 1036 l 350 863 l 176 863 l 176 350 l 350 350 l 350 176 l 1036 176 l 1036 350 l 1218 350 l 1218 168 l 1044 168 l 1044 -6 l 342 -6 l 342 168 l 168 168 l 168 342 l -6 342 l -6 871 z "},"D":{"ha":1389,"x_min":-6,"x_max":1218,"o":"m -6 1218 l 871 1218 l 871 1044 l 1044 1044 l 1044 871 l 1218 871 l 1218 342 l 1044 342 l 1044 168 l 871 168 l 871 -6 l -6 -6 l -6 1218 m 863 1036 l 176 1036 l 176 176 l 863 176 l 863 350 l 1036 350 l 1036 863 l 863 863 l 863 1036 z "},"E":{"ha":1389,"x_min":-6,"x_max":1218,"o":"m -6 1218 l 1218 1218 l 1218 1036 l 176 1036 l 176 697 l 1044 697 l 1044 515 l 176 515 l 176 176 l 1218 176 l 1218 -6 l -6 -6 l -6 1218 z "},"F":{"ha":1389,"x_min":-6,"x_max":1218,"o":"m -6 1218 l 1218 1218 l 1218 1036 l 176 1036 l 176 697 l 1044 697 l 1044 515 l 176 515 l 176 -6 l -6 -6 l -6 1218 z "},"G":{"ha":1389,"x_min":-6,"x_max":1218,"o":"m 1036 1036 l 350 1036 l 350 863 l 176 863 l 176 350 l 350 350 l 350 176 l 1036 176 l 1036 515 l 515 515 l 515 697 l 1218 697 l 1218 168 l 1044 168 l 1044 -6 l 342 -6 l 342 168 l 168 168 l 168 342 l -6 342 l -6 871 l 168 871 l 168 1044 l 342 1044 l 342 1218 l 1044 1218 l 1044 1044 l 1218 1044 l 1218 863 l 1036 863 l 1036 1036 z "},"H":{"ha":1389,"x_min":-6,"x_max":1218,"o":"m -6 1218 l 176 1218 l 176 697 l 1036 697 l 1036 1218 l 1218 1218 l 1218 -6 l 1036 -6 l 1036 515 l 176 515 l 176 -6 l -6 -6 l -6 1218 z "},"I":{"ha":1389,"x_min":168,"x_max":1044,"o":"m 168 1218 l 1044 1218 l 1044 1036 l 697 1036 l 697 176 l 1044 176 l 1044 -6 l 168 -6 l 168 176 l 515 176 l 515 1036 l 168 1036 l 168 1218 z "},"J":{"ha":1389,"x_min":-6,"x_max":1218,"o":"m -6 524 l 176 524 l 176 176 l 689 176 l 689 1036 l 168 1036 l 168 1218 l 1218 1218 l 1218 1036 l 871 1036 l 871 168 l 697 168 l 697 -6 l 168 -6 l 168 168 l -6 168 l -6 524 z "},"K":{"ha":1389,"x_min":-6,"x_max":1218,"o":"m -6 1218 l 176 1218 l 176 524 l 342 524 l 342 697 l 515 697 l 515 871 l 689 871 l 689 1044 l 863 1044 l 863 1218 l 1044 1218 l 1044 1036 l 871 1036 l 871 863 l 697 863 l 697 524 l 871 524 l 871 350 l 1044 350 l 1044 176 l 1218 176 l 1218 -6 l 1036 -6 l 1036 168 l 863 168 l 863 342 l 689 342 l 689 515 l 350 515 l 350 342 l 176 342 l 176 -6 l -6 -6 l -6 1218 z "},"L":{"ha":1389,"x_min":-6,"x_max":1218,"o":"m -6 1218 l 176 1218 l 176 176 l 1218 176 l 1218 -6 l -6 -6 l -6 1218 z "},"M":{"ha":1389,"x_min":-6,"x_max":1218,"o":"m -6 1218 l 176 1218 l 176 1044 l 350 1044 l 350 871 l 524 871 l 524 697 l 689 697 l 689 871 l 863 871 l 863 1044 l 1036 1044 l 1036 1218 l 1218 1218 l 1218 -6 l 1036 -6 l 1036 863 l 871 863 l 871 689 l 697 689 l 697 515 l 515 515 l 515 689 l 342 689 l 342 863 l 176 863 l 176 -6 l -6 -6 l -6 1218 z "},"N":{"ha":1389,"x_min":-6,"x_max":1218,"o":"m -6 1218 l 176 1218 l 176 1044 l 350 1044 l 350 871 l 524 871 l 524 697 l 697 697 l 697 524 l 871 524 l 871 350 l 1036 350 l 1036 1218 l 1218 1218 l 1218 -6 l 1036 -6 l 1036 168 l 863 168 l 863 342 l 689 342 l 689 515 l 515 515 l 515 689 l 342 689 l 342 863 l 176 863 l 176 -6 l -6 -6 l -6 1218 z "},"O":{"ha":1389,"x_min":-6,"x_max":1218,"o":"m -6 871 l 168 871 l 168 1044 l 342 1044 l 342 1218 l 871 1218 l 871 1044 l 1044 1044 l 1044 871 l 1218 871 l 1218 342 l 1044 342 l 1044 168 l 871 168 l 871 -6 l 342 -6 l 342 168 l 168 168 l 168 342 l -6 342 l -6 871 m 863 1036 l 350 1036 l 350 863 l 176 863 l 176 350 l 350 350 l 350 176 l 863 176 l 863 350 l 1036 350 l 1036 863 l 863 863 l 863 1036 z "},"P":{"ha":1389,"x_min":-6,"x_max":1218,"o":"m -6 1218 l 1044 1218 l 1044 1044 l 1218 1044 l 1218 689 l 1044 689 l 1044 515 l 176 515 l 176 -6 l -6 -6 l -6 1218 m 176 697 l 1036 697 l 1036 1036 l 176 1036 l 176 697 z "},"Q":{"ha":1389,"x_min":-6,"x_max":1218,"o":"m -6 871 l 168 871 l 168 1044 l 342 1044 l 342 1218 l 871 1218 l 871 1044 l 1044 1044 l 1044 871 l 1218 871 l 1218 342 l 1044 342 l 1044 176 l 1218 176 l 1218 -6 l 1036 -6 l 1036 168 l 871 168 l 871 -6 l 342 -6 l 342 168 l 168 168 l 168 342 l -6 342 l -6 871 m 863 1036 l 350 1036 l 350 863 l 176 863 l 176 350 l 350 350 l 350 176 l 863 176 l 863 342 l 689 342 l 689 524 l 871 524 l 871 350 l 1036 350 l 1036 863 l 863 863 l 863 1036 z "},"R":{"ha":1389,"x_min":-6,"x_max":1218,"o":"m -6 1218 l 1044 1218 l 1044 1044 l 1218 1044 l 1218 689 l 1044 689 l 1044 515 l 871 515 l 871 350 l 1044 350 l 1044 176 l 1218 176 l 1218 -6 l 1036 -6 l 1036 168 l 863 168 l 863 342 l 689 342 l 689 515 l 176 515 l 176 -6 l -6 -6 l -6 1218 m 176 697 l 1036 697 l 1036 1036 l 176 1036 l 176 697 z "},"S":{"ha":1389,"x_min":-6,"x_max":1218,"o":"m -6 1044 l 168 1044 l 168 1218 l 871 1218 l 871 1044 l 1044 1044 l 1044 863 l 863 863 l 863 1036 l 176 1036 l 176 697 l 1044 697 l 1044 524 l 1218 524 l 1218 168 l 1044 168 l 1044 -6 l 168 -6 l 168 168 l -6 168 l -6 350 l 176 350 l 176 176 l 1036 176 l 1036 515 l 168 515 l 168 689 l -6 689 l -6 1044 z "},"T":{"ha":1389,"x_min":-6,"x_max":1218,"o":"m -6 1218 l 1218 1218 l 1218 1036 l 697 1036 l 697 -6 l 515 -6 l 515 1036 l -6 1036 l -6 1218 z "},"U":{"ha":1389,"x_min":-6,"x_max":1218,"o":"m -6 1218 l 176 1218 l 176 350 l 350 350 l 350 176 l 1036 176 l 1036 1218 l 1218 1218 l 1218 -6 l 342 -6 l 342 168 l 168 168 l 168 342 l -6 342 l -6 1218 z "},"V":{"ha":1389,"x_min":-6,"x_max":1218,"o":"m -6 1218 l 176 1218 l 176 871 l 350 871 l 350 524 l 524 524 l 524 176 l 689 176 l 689 524 l 863 524 l 863 871 l 1036 871 l 1036 1218 l 1218 1218 l 1218 863 l 1044 863 l 1044 515 l 871 515 l 871 168 l 697 168 l 697 -6 l 515 -6 l 515 168 l 342 168 l 342 515 l 168 515 l 168 863 l -6 863 l -6 1218 z "},"W":{"ha":1389,"x_min":-6,"x_max":1218,"o":"m -6 1218 l 176 1218 l 176 524 l 342 524 l 342 871 l 515 871 l 515 1044 l 697 1044 l 697 871 l 871 871 l 871 524 l 1036 524 l 1036 1218 l 1218 1218 l 1218 -6 l 1036 -6 l 1036 168 l 863 168 l 863 515 l 689 515 l 689 863 l 524 863 l 524 515 l 350 515 l 350 168 l 176 168 l 176 -6 l -6 -6 l -6 1218 z "},"X":{"ha":1389,"x_min":-6,"x_max":1218,"o":"m -6 1218 l 350 1218 l 350 871 l 524 871 l 524 697 l 689 697 l 689 871 l 863 871 l 863 1218 l 1218 1218 l 1218 1036 l 1044 1036 l 1044 863 l 871 863 l 871 689 l 697 689 l 697 524 l 871 524 l 871 350 l 1044 350 l 1044 176 l 1218 176 l 1218 -6 l 863 -6 l 863 342 l 689 342 l 689 515 l 524 515 l 524 342 l 350 342 l 350 -6 l -6 -6 l -6 176 l 168 176 l 168 350 l 342 350 l 342 524 l 515 524 l 515 689 l 342 689 l 342 863 l 168 863 l 168 1036 l -6 1036 l -6 1218 z "},"Y":{"ha":1389,"x_min":-6,"x_max":1218,"o":"m -6 1218 l 176 1218 l 176 1044 l 350 1044 l 350 871 l 524 871 l 524 697 l 689 697 l 689 871 l 863 871 l 863 1044 l 1036 1044 l 1036 1218 l 1218 1218 l 1218 1036 l 1044 1036 l 1044 863 l 871 863 l 871 689 l 697 689 l 697 -6 l 515 -6 l 515 689 l 342 689 l 342 863 l 168 863 l 168 1036 l -6 1036 l -6 1218 z "},"Z":{"ha":1389,"x_min":-6,"x_max":1218,"o":"m -6 1218 l 1218 1218 l 1218 1036 l 1044 1036 l 1044 863 l 871 863 l 871 689 l 697 689 l 697 515 l 524 515 l 524 342 l 350 342 l 350 176 l 1218 176 l 1218 -6 l -6 -6 l -6 176 l 168 176 l 168 350 l 342 350 l 342 524 l 515 524 l 515 697 l 689 697 l 689 871 l 863 871 l 863 1036 l -6 1036 l -6 1218 z "},"[":{"ha":1389,"x_min":863,"x_max":1392,"o":"m 863 1218 l 1392 1218 l 1392 1036 l 1044 1036 l 1044 176 l 1392 176 l 1392 -6 l 863 -6 l 863 1218 z "},"]":{"ha":1389,"x_min":-6,"x_max":524,"o":"m -6 1218 l 524 1218 l 524 -6 l -6 -6 l -6 176 l 342 176 l 342 1036 l -6 1036 l -6 1218 z "},"a":{"ha":1389,"x_min":168,"x_max":1218,"o":"m 342 871 l 871 871 l 871 697 l 1044 697 l 1044 176 l 1218 176 l 1218 -6 l 342 -6 l 342 168 l 168 168 l 168 350 l 342 350 l 342 524 l 863 524 l 863 689 l 342 689 l 342 871 m 350 176 l 863 176 l 863 342 l 350 342 l 350 176 z "},"b":{"ha":1389,"x_min":168,"x_max":1218,"o":"m 168 1218 l 350 1218 l 350 697 l 1044 697 l 1044 524 l 1218 524 l 1218 168 l 1044 168 l 1044 -6 l 168 -6 l 168 1218 m 1036 515 l 350 515 l 350 176 l 1036 176 l 1036 515 z "},"c":{"ha":1389,"x_min":168,"x_max":1218,"o":"m 168 697 l 342 697 l 342 871 l 1044 871 l 1044 697 l 1218 697 l 1218 515 l 1036 515 l 1036 689 l 350 689 l 350 176 l 1036 176 l 1036 350 l 1218 350 l 1218 168 l 1044 168 l 1044 -6 l 342 -6 l 342 168 l 168 168 l 168 697 z "},"d":{"ha":1389,"x_min":168,"x_max":1218,"o":"m 168 524 l 342 524 l 342 697 l 1036 697 l 1036 1218 l 1218 1218 l 1218 -6 l 342 -6 l 342 168 l 168 168 l 168 524 m 350 176 l 1036 176 l 1036 515 l 350 515 l 350 176 z "},"e":{"ha":1389,"x_min":168,"x_max":1218,"o":"m 168 697 l 342 697 l 342 871 l 1044 871 l 1044 697 l 1218 697 l 1218 342 l 350 342 l 350 176 l 1218 176 l 1218 -6 l 342 -6 l 342 168 l 168 168 l 168 697 m 350 524 l 1036 524 l 1036 689 l 350 689 l 350 524 z "},"f":{"ha":1389,"x_min":168,"x_max":1218,"o":"m 1036 1036 l 697 1036 l 697 697 l 1218 697 l 1218 515 l 697 515 l 697 -6 l 515 -6 l 515 515 l 168 515 l 168 697 l 515 697 l 515 1044 l 689 1044 l 689 1218 l 1044 1218 l 1044 1044 l 1218 1044 l 1218 863 l 1036 863 l 1036 1036 z "},"g":{"ha":1389,"x_min":168,"x_max":1218,"o":"m 168 697 l 342 697 l 342 871 l 1218 871 l 1218 -6 l 1044 -6 l 1044 -179 l 168 -179 l 168 3 l 1036 3 l 1036 168 l 342 168 l 342 342 l 168 342 l 168 697 m 350 350 l 1036 350 l 1036 689 l 350 689 l 350 350 z "},"h":{"ha":1389,"x_min":168,"x_max":1044,"o":"m 168 1218 l 350 1218 l 350 697 l 871 697 l 871 524 l 1044 524 l 1044 -6 l 863 -6 l 863 515 l 350 515 l 350 -6 l 168 -6 l 168 1218 z "},"i":{"ha":1389,"x_min":515,"x_max":697,"o":"m 515 697 l 697 697 l 697 -6 l 515 -6 l 515 697 m 515 1044 l 697 1044 l 697 863 l 515 863 l 515 1044 z "},"j":{"ha":1389,"x_min":342,"x_max":871,"o":"m 342 3 l 689 3 l 689 697 l 871 697 l 871 -6 l 697 -6 l 697 -179 l 342 -179 l 342 3 m 689 1044 l 871 1044 l 871 863 l 689 863 l 689 1044 z "},"k":{"ha":1389,"x_min":168,"x_max":1218,"o":"m 168 1218 l 350 1218 l 350 524 l 515 524 l 515 697 l 863 697 l 863 871 l 1218 871 l 1218 689 l 871 689 l 871 515 l 524 515 l 524 350 l 871 350 l 871 176 l 1218 176 l 1218 -6 l 863 -6 l 863 168 l 515 168 l 515 342 l 350 342 l 350 -6 l 168 -6 l 168 1218 z "},"l":{"ha":1389,"x_min":515,"x_max":697,"o":"m 515 1218 l 697 1218 l 697 -6 l 515 -6 l 515 1218 z "},"m":{"ha":1389,"x_min":-6,"x_max":1218,"o":"m -6 871 l 524 871 l 524 697 l 689 697 l 689 871 l 1044 871 l 1044 697 l 1218 697 l 1218 -6 l 1036 -6 l 1036 689 l 697 689 l 697 -6 l 515 -6 l 515 689 l 176 689 l 176 -6 l -6 -6 l -6 871 z "},"n":{"ha":1389,"x_min":342,"x_max":1218,"o":"m 342 871 l 1044 871 l 1044 697 l 1218 697 l 1218 -6 l 1036 -6 l 1036 689 l 524 689 l 524 -6 l 342 -6 l 342 871 z "},"o":{"ha":1389,"x_min":168,"x_max":1218,"o":"m 168 697 l 342 697 l 342 871 l 1044 871 l 1044 697 l 1218 697 l 1218 168 l 1044 168 l 1044 -6 l 342 -6 l 342 168 l 168 168 l 168 697 m 350 176 l 1036 176 l 1036 689 l 350 689 l 350 176 z "},"p":{"ha":1389,"x_min":168,"x_max":1218,"o":"m 168 871 l 1044 871 l 1044 697 l 1218 697 l 1218 342 l 1044 342 l 1044 168 l 350 168 l 350 -179 l 168 -179 l 168 871 m 350 350 l 1036 350 l 1036 689 l 350 689 l 350 350 z "},"q":{"ha":1389,"x_min":168,"x_max":1218,"o":"m 168 697 l 342 697 l 342 871 l 1218 871 l 1218 -179 l 1036 -179 l 1036 168 l 342 168 l 342 342 l 168 342 l 168 697 m 350 350 l 1036 350 l 1036 689 l 350 689 l 350 350 z "},"r":{"ha":1389,"x_min":168,"x_max":1218,"o":"m 168 871 l 350 871 l 350 524 l 515 524 l 515 697 l 689 697 l 689 871 l 1218 871 l 1218 689 l 697 689 l 697 515 l 524 515 l 524 342 l 350 342 l 350 -6 l 168 -6 l 168 871 z "},"s":{"ha":1389,"x_min":168,"x_max":1218,"o":"m 168 697 l 342 697 l 342 871 l 1044 871 l 1044 689 l 350 689 l 350 524 l 1044 524 l 1044 350 l 1218 350 l 1218 168 l 1044 168 l 1044 -6 l 168 -6 l 168 176 l 1036 176 l 1036 342 l 342 342 l 342 515 l 168 515 l 168 697 z "},"t":{"ha":1389,"x_min":168,"x_max":1044,"o":"m 168 871 l 515 871 l 515 1044 l 697 1044 l 697 871 l 1044 871 l 1044 689 l 697 689 l 697 176 l 1044 176 l 1044 -6 l 689 -6 l 689 168 l 515 168 l 515 689 l 168 689 l 168 871 z "},"u":{"ha":1389,"x_min":168,"x_max":1044,"o":"m 168 871 l 350 871 l 350 176 l 863 176 l 863 871 l 1044 871 l 1044 -6 l 342 -6 l 342 168 l 168 168 l 168 871 z "},"v":{"ha":1389,"x_min":168,"x_max":1044,"o":"m 168 871 l 350 871 l 350 350 l 524 350 l 524 176 l 689 176 l 689 350 l 863 350 l 863 871 l 1044 871 l 1044 342 l 871 342 l 871 168 l 697 168 l 697 -6 l 515 -6 l 515 168 l 342 168 l 342 342 l 168 342 l 168 871 z "},"w":{"ha":1389,"x_min":-6,"x_max":1218,"o":"m -6 871 l 176 871 l 176 176 l 342 176 l 342 350 l 515 350 l 515 697 l 697 697 l 697 350 l 871 350 l 871 176 l 1036 176 l 1036 871 l 1218 871 l 1218 168 l 1044 168 l 1044 -6 l 863 -6 l 863 168 l 689 168 l 689 342 l 524 342 l 524 168 l 350 168 l 350 -6 l 168 -6 l 168 168 l -6 168 l -6 871 z "},"x":{"ha":1389,"x_min":-6,"x_max":1218,"o":"m -6 871 l 350 871 l 350 697 l 524 697 l 524 524 l 689 524 l 689 697 l 863 697 l 863 871 l 1044 871 l 1044 689 l 871 689 l 871 515 l 697 515 l 697 350 l 871 350 l 871 176 l 1218 176 l 1218 -6 l 863 -6 l 863 168 l 689 168 l 689 342 l 524 342 l 524 168 l 350 168 l 350 -6 l 168 -6 l 168 176 l 342 176 l 342 350 l 515 350 l 515 515 l 342 515 l 342 689 l -6 689 l -6 871 z "},"y":{"ha":1389,"x_min":168,"x_max":1044,"o":"m 168 871 l 350 871 l 350 350 l 863 350 l 863 871 l 1044 871 l 1044 -6 l 871 -6 l 871 -179 l 168 -179 l 168 3 l 863 3 l 863 168 l 342 168 l 342 342 l 168 342 l 168 871 z "},"z":{"ha":1389,"x_min":168,"x_max":1218,"o":"m 168 871 l 1218 871 l 1218 689 l 1044 689 l 1044 515 l 871 515 l 871 342 l 524 342 l 524 176 l 1218 176 l 1218 -6 l 168 -6 l 168 176 l 342 176 l 342 350 l 515 350 l 515 524 l 863 524 l 863 689 l 168 689 l 168 871 z "},"¡":{"ha":1389,"x_min":342,"x_max":1044,"o":"m 342 524 l 515 524 l 515 697 l 871 697 l 871 524 l 1044 524 l 1044 -6 l 871 -6 l 871 -179 l 515 -179 l 515 -6 l 342 -6 l 342 524 m 515 1218 l 871 1218 l 871 863 l 515 863 l 515 1218 z "},"°":{"ha":1389,"x_min":168,"x_max":871,"o":"m 168 871 l 342 871 l 342 1044 l 697 1044 l 697 871 l 871 871 l 871 515 l 697 515 l 697 342 l 342 342 l 342 515 l 168 515 l 168 871 m 350 524 l 689 524 l 689 863 l 350 863 l 350 524 z "},"¿":{"ha":1389,"x_min":-6,"x_max":1392,"o":"m -6 350 l 168 350 l 168 524 l 515 524 l 515 697 l 871 697 l 871 515 l 524 515 l 524 176 l 863 176 l 863 350 l 1036 350 l 1036 524 l 1392 524 l 1392 342 l 1218 342 l 1218 -6 l 168 -6 l 168 168 l -6 168 l -6 350 m 515 1218 l 871 1218 l 871 863 l 515 863 l 515 1218 z "},"À":{"ha":1389,"x_min":-6,"x_max":1218,"o":"m 515 1218 l 697 1218 l 697 1044 l 871 1044 l 871 863 l 697 863 l 697 697 l 871 697 l 871 524 l 1044 524 l 1044 350 l 1218 350 l 1218 -6 l 1036 -6 l 1036 168 l 176 168 l 176 -6 l -6 -6 l -6 350 l 168 350 l 168 524 l 342 524 l 342 697 l 515 697 l 515 871 l 689 871 l 689 1036 l 515 1036 l 515 1218 m 689 689 l 524 689 l 524 515 l 350 515 l 350 350 l 863 350 l 863 515 l 689 515 l 689 689 z "},"Á":{"ha":1389,"x_min":-6,"x_max":1218,"o":"m 342 1044 l 515 1044 l 515 1218 l 697 1218 l 697 1036 l 524 1036 l 524 871 l 697 871 l 697 697 l 871 697 l 871 524 l 1044 524 l 1044 350 l 1218 350 l 1218 -6 l 1036 -6 l 1036 168 l 176 168 l 176 -6 l -6 -6 l -6 350 l 168 350 l 168 524 l 342 524 l 342 697 l 515 697 l 515 863 l 342 863 l 342 1044 m 689 689 l 524 689 l 524 515 l 350 515 l 350 350 l 863 350 l 863 515 l 689 515 l 689 689 z "},"Ä":{"ha":1389,"x_min":-6,"x_max":1218,"o":"m 342 1218 l 524 1218 l 524 1044 l 689 1044 l 689 1218 l 871 1218 l 871 1036 l 697 1036 l 697 871 l 871 871 l 871 697 l 1044 697 l 1044 350 l 1218 350 l 1218 -6 l 1036 -6 l 1036 342 l 176 342 l 176 -6 l -6 -6 l -6 350 l 168 350 l 168 697 l 342 697 l 342 871 l 515 871 l 515 1036 l 342 1036 l 342 1218 m 689 863 l 524 863 l 524 689 l 350 689 l 350 524 l 863 524 l 863 689 l 689 689 l 689 863 z "},"È":{"ha":1389,"x_min":-6,"x_max":1218,"o":"m 515 1218 l 697 1218 l 697 1044 l 871 1044 l 871 871 l 1218 871 l 1218 689 l 176 689 l 176 524 l 1044 524 l 1044 342 l 176 342 l 176 176 l 1218 176 l 1218 -6 l -6 -6 l -6 871 l 689 871 l 689 1036 l 515 1036 l 515 1218 z "},"É":{"ha":1389,"x_min":-6,"x_max":1218,"o":"m -6 871 l 342 871 l 342 1044 l 515 1044 l 515 1218 l 697 1218 l 697 1036 l 524 1036 l 524 871 l 1218 871 l 1218 689 l 176 689 l 176 524 l 1044 524 l 1044 342 l 176 342 l 176 176 l 1218 176 l 1218 -6 l -6 -6 l -6 871 z "},"Ì":{"ha":1389,"x_min":168,"x_max":1044,"o":"m 515 1218 l 697 1218 l 697 1044 l 871 1044 l 871 871 l 1044 871 l 1044 689 l 697 689 l 697 176 l 1044 176 l 1044 -6 l 168 -6 l 168 176 l 515 176 l 515 689 l 168 689 l 168 871 l 689 871 l 689 1036 l 515 1036 l 515 1218 z "},"Í":{"ha":1389,"x_min":168,"x_max":1044,"o":"m 168 871 l 342 871 l 342 1044 l 515 1044 l 515 1218 l 697 1218 l 697 1036 l 524 1036 l 524 871 l 1044 871 l 1044 689 l 697 689 l 697 176 l 1044 176 l 1044 -6 l 168 -6 l 168 176 l 515 176 l 515 689 l 168 689 l 168 871 z "},"Ñ":{"ha":1389,"x_min":-6,"x_max":1218,"o":"m -6 871 l 168 871 l 168 1044 l 342 1044 l 342 1218 l 697 1218 l 697 1044 l 1036 1044 l 1036 1218 l 1218 1218 l 1218 1036 l 1044 1036 l 1044 871 l 1218 871 l 1218 -6 l 863 -6 l 863 168 l 689 168 l 689 342 l 515 342 l 515 515 l 342 515 l 342 689 l 176 689 l 176 -6 l -6 -6 l -6 871 m 350 697 l 524 697 l 524 524 l 697 524 l 697 350 l 871 350 l 871 176 l 1036 176 l 1036 863 l 689 863 l 689 1036 l 350 1036 l 350 697 z "},"Ò":{"ha":1389,"x_min":-6,"x_max":1218,"o":"m 515 1218 l 697 1218 l 697 1044 l 871 1044 l 871 871 l 1044 871 l 1044 697 l 1218 697 l 1218 168 l 1044 168 l 1044 -6 l 168 -6 l 168 168 l -6 168 l -6 697 l 168 697 l 168 871 l 689 871 l 689 1036 l 515 1036 l 515 1218 m 176 176 l 1036 176 l 1036 689 l 176 689 l 176 176 z "},"Ó":{"ha":1389,"x_min":-6,"x_max":1218,"o":"m -6 697 l 168 697 l 168 871 l 342 871 l 342 1044 l 515 1044 l 515 1218 l 697 1218 l 697 1036 l 524 1036 l 524 871 l 1044 871 l 1044 697 l 1218 697 l 1218 168 l 1044 168 l 1044 -6 l 168 -6 l 168 168 l -6 168 l -6 697 m 176 176 l 1036 176 l 1036 689 l 176 689 l 176 176 z "},"Ö":{"ha":1389,"x_min":-6,"x_max":1218,"o":"m -6 697 l 168 697 l 168 871 l 342 871 l 342 1218 l 524 1218 l 524 1044 l 689 1044 l 689 1218 l 871 1218 l 871 871 l 1044 871 l 1044 697 l 1218 697 l 1218 342 l 1044 342 l 1044 168 l 871 168 l 871 -6 l 342 -6 l 342 168 l 168 168 l 168 342 l -6 342 l -6 697 m 350 689 l 176 689 l 176 350 l 350 350 l 350 176 l 863 176 l 863 350 l 1036 350 l 1036 689 l 863 689 l 863 863 l 350 863 l 350 689 z "},"×":{"ha":1389,"x_min":168,"x_max":1044,"o":"m 168 871 l 350 871 l 350 697 l 524 697 l 524 524 l 689 524 l 689 697 l 863 697 l 863 871 l 1044 871 l 1044 689 l 871 689 l 871 515 l 697 515 l 697 350 l 871 350 l 871 176 l 1044 176 l 1044 -6 l 863 -6 l 863 168 l 689 168 l 689 342 l 524 342 l 524 168 l 350 168 l 350 -6 l 168 -6 l 168 176 l 342 176 l 342 350 l 515 350 l 515 515 l 342 515 l 342 689 l 168 689 l 168 871 z "},"Ù":{"ha":1389,"x_min":-6,"x_max":1218,"o":"m -6 871 l 176 871 l 176 350 l 350 350 l 350 176 l 1036 176 l 1036 871 l 1218 871 l 1218 -6 l 342 -6 l 342 168 l 168 168 l 168 342 l -6 342 l -6 871 m 515 1218 l 697 1218 l 697 1044 l 871 1044 l 871 863 l 689 863 l 689 1036 l 515 1036 l 515 1218 z "},"Ú":{"ha":1389,"x_min":-6,"x_max":1218,"o":"m -6 871 l 176 871 l 176 350 l 350 350 l 350 176 l 1036 176 l 1036 871 l 1218 871 l 1218 -6 l 342 -6 l 342 168 l 168 168 l 168 342 l -6 342 l -6 871 m 342 1044 l 515 1044 l 515 1218 l 697 1218 l 697 1036 l 524 1036 l 524 863 l 342 863 l 342 1044 z "},"Ü":{"ha":1389,"x_min":-6,"x_max":1218,"o":"m -6 1044 l 176 1044 l 176 350 l 350 350 l 350 176 l 1036 176 l 1036 1044 l 1218 1044 l 1218 -6 l 342 -6 l 342 168 l 168 168 l 168 342 l -6 342 l -6 1044 m 342 1218 l 524 1218 l 524 1036 l 342 1036 l 342 1218 m 689 1218 l 871 1218 l 871 1036 l 689 1036 l 689 1218 z "},"ß":{"ha":1215,"x_min":-6,"x_max":1044,"o":"m -6 1218 l 697 1218 l 697 1044 l 871 1044 l 871 524 l 1044 524 l 1044 168 l 871 168 l 871 -6 l 515 -6 l 515 168 l 342 168 l 342 350 l 524 350 l 524 176 l 863 176 l 863 515 l 342 515 l 342 697 l 689 697 l 689 1036 l 176 1036 l 176 -6 l -6 -6 l -6 1218 z "},"à":{"ha":1389,"x_min":168,"x_max":1218,"o":"m 342 1218 l 524 1218 l 524 1044 l 697 1044 l 697 871 l 871 871 l 871 697 l 1044 697 l 1044 176 l 1218 176 l 1218 -6 l 342 -6 l 342 168 l 168 168 l 168 350 l 342 350 l 342 524 l 863 524 l 863 689 l 342 689 l 342 871 l 515 871 l 515 1036 l 342 1036 l 342 1218 m 350 342 l 350 176 l 863 176 l 863 342 l 350 342 z "},"á":{"ha":1389,"x_min":168,"x_max":1218,"o":"m 342 871 l 515 871 l 515 1044 l 689 1044 l 689 1218 l 871 1218 l 871 1036 l 697 1036 l 697 871 l 871 871 l 871 697 l 1044 697 l 1044 176 l 1218 176 l 1218 -6 l 342 -6 l 342 168 l 168 168 l 168 350 l 342 350 l 342 524 l 863 524 l 863 689 l 342 689 l 342 871 m 350 176 l 863 176 l 863 342 l 350 342 l 350 176 z "},"â":{"ha":1389,"x_min":168,"x_max":1218,"o":"m 342 1044 l 515 1044 l 515 1218 l 697 1218 l 697 1044 l 871 1044 l 871 697 l 1044 697 l 1044 176 l 1218 176 l 1218 -6 l 342 -6 l 342 168 l 168 168 l 168 350 l 342 350 l 342 524 l 863 524 l 863 689 l 342 689 l 342 1044 m 350 176 l 863 176 l 863 342 l 350 342 l 350 176 m 524 871 l 689 871 l 689 1036 l 524 1036 l 524 871 z "},"ä":{"ha":1389,"x_min":168,"x_max":1218,"o":"m 342 871 l 871 871 l 871 697 l 1044 697 l 1044 176 l 1218 176 l 1218 -6 l 342 -6 l 342 168 l 168 168 l 168 350 l 342 350 l 342 524 l 863 524 l 863 689 l 342 689 l 342 871 m 350 176 l 863 176 l 863 342 l 350 342 l 350 176 m 342 1218 l 524 1218 l 524 1036 l 342 1036 l 342 1218 m 689 1218 l 871 1218 l 871 1036 l 689 1036 l 689 1218 z "},"ç":{"ha":1389,"x_min":168,"x_max":1218,"o":"m 168 697 l 342 697 l 342 871 l 1044 871 l 1044 697 l 1218 697 l 1218 515 l 1036 515 l 1036 689 l 350 689 l 350 350 l 1044 350 l 1044 168 l 871 168 l 871 -179 l 515 -179 l 515 3 l 689 3 l 689 168 l 342 168 l 342 342 l 168 342 l 168 697 z "},"è":{"ha":1389,"x_min":168,"x_max":1218,"o":"m 515 1218 l 697 1218 l 697 1044 l 871 1044 l 871 871 l 1044 871 l 1044 697 l 1218 697 l 1218 342 l 350 342 l 350 176 l 1218 176 l 1218 -6 l 342 -6 l 342 168 l 168 168 l 168 697 l 342 697 l 342 871 l 689 871 l 689 1036 l 515 1036 l 515 1218 m 350 524 l 1036 524 l 1036 689 l 350 689 l 350 524 z "},"é":{"ha":1389,"x_min":-6,"x_max":1218,"o":"m -6 1044 l 342 1044 l 342 1218 l 697 1218 l 697 1036 l 350 1036 l 350 871 l 1044 871 l 1044 697 l 1218 697 l 1218 342 l 350 342 l 350 176 l 1218 176 l 1218 -6 l 342 -6 l 342 168 l 168 168 l 168 697 l 342 697 l 342 863 l -6 863 l -6 1044 m 350 689 l 350 524 l 1036 524 l 1036 689 l 350 689 z "},"ê":{"ha":1389,"x_min":168,"x_max":1218,"o":"m 168 697 l 342 697 l 342 1044 l 515 1044 l 515 1218 l 697 1218 l 697 1044 l 871 1044 l 871 871 l 1044 871 l 1044 697 l 1218 697 l 1218 342 l 350 342 l 350 176 l 1218 176 l 1218 -6 l 342 -6 l 342 168 l 168 168 l 168 697 m 350 524 l 1036 524 l 1036 689 l 350 689 l 350 524 m 524 871 l 689 871 l 689 1036 l 524 1036 l 524 871 z "},"ë":{"ha":1389,"x_min":168,"x_max":1218,"o":"m 168 697 l 342 697 l 342 871 l 1044 871 l 1044 697 l 1218 697 l 1218 342 l 350 342 l 350 176 l 1218 176 l 1218 -6 l 342 -6 l 342 168 l 168 168 l 168 697 m 350 524 l 1036 524 l 1036 689 l 350 689 l 350 524 m 689 1218 l 871 1218 l 871 1036 l 689 1036 l 689 1218 m 342 1218 l 524 1218 l 524 1036 l 342 1036 l 342 1218 z "},"ì":{"ha":1389,"x_min":342,"x_max":697,"o":"m 515 697 l 697 697 l 697 -6 l 515 -6 l 515 697 m 342 1218 l 524 1218 l 524 1044 l 697 1044 l 697 863 l 515 863 l 515 1036 l 342 1036 l 342 1218 z "},"í":{"ha":1389,"x_min":515,"x_max":871,"o":"m 515 697 l 697 697 l 697 -6 l 515 -6 l 515 697 m 515 1044 l 689 1044 l 689 1218 l 871 1218 l 871 1036 l 697 1036 l 697 863 l 515 863 l 515 1044 z "},"î":{"ha":1389,"x_min":342,"x_max":871,"o":"m 515 697 l 697 697 l 697 -6 l 515 -6 l 515 697 m 342 1044 l 515 1044 l 515 1218 l 697 1218 l 697 1044 l 871 1044 l 871 863 l 689 863 l 689 1036 l 524 1036 l 524 863 l 342 863 l 342 1044 z "},"ï":{"ha":1389,"x_min":168,"x_max":697,"o":"m 515 697 l 697 697 l 697 -6 l 515 -6 l 515 697 m 168 1044 l 350 1044 l 350 863 l 168 863 l 168 1044 m 515 1044 l 697 1044 l 697 863 l 515 863 l 515 1044 z "},"ñ":{"ha":1389,"x_min":168,"x_max":1218,"o":"m 168 1044 l 342 1044 l 342 1218 l 697 1218 l 697 1044 l 1036 1044 l 1036 1218 l 1218 1218 l 1218 1036 l 1044 1036 l 1044 697 l 1218 697 l 1218 -6 l 1036 -6 l 1036 689 l 524 689 l 524 -6 l 342 -6 l 342 863 l 168 863 l 168 1044 m 350 1036 l 350 871 l 689 871 l 689 1036 l 350 1036 z "},"ò":{"ha":1389,"x_min":168,"x_max":1218,"o":"m 342 1218 l 524 1218 l 524 1044 l 697 1044 l 697 871 l 1044 871 l 1044 697 l 1218 697 l 1218 168 l 1044 168 l 1044 -6 l 342 -6 l 342 168 l 168 168 l 168 697 l 342 697 l 342 871 l 515 871 l 515 1036 l 342 1036 l 342 1218 m 1036 689 l 350 689 l 350 176 l 1036 176 l 1036 689 z "},"ó":{"ha":1389,"x_min":168,"x_max":1218,"o":"m 168 697 l 342 697 l 342 871 l 515 871 l 515 1044 l 689 1044 l 689 1218 l 871 1218 l 871 1036 l 697 1036 l 697 871 l 1044 871 l 1044 697 l 1218 697 l 1218 168 l 1044 168 l 1044 -6 l 342 -6 l 342 168 l 168 168 l 168 697 m 350 176 l 1036 176 l 1036 689 l 350 689 l 350 176 z "},"ô":{"ha":1389,"x_min":168,"x_max":1218,"o":"m 168 697 l 342 697 l 342 1044 l 515 1044 l 515 1218 l 697 1218 l 697 1044 l 871 1044 l 871 871 l 1044 871 l 1044 697 l 1218 697 l 1218 168 l 1044 168 l 1044 -6 l 342 -6 l 342 168 l 168 168 l 168 697 m 350 176 l 1036 176 l 1036 689 l 350 689 l 350 176 m 524 871 l 689 871 l 689 1036 l 524 1036 l 524 871 z "},"ö":{"ha":1389,"x_min":168,"x_max":1218,"o":"m 168 697 l 342 697 l 342 871 l 1044 871 l 1044 697 l 1218 697 l 1218 168 l 1044 168 l 1044 -6 l 342 -6 l 342 168 l 168 168 l 168 697 m 350 176 l 1036 176 l 1036 689 l 350 689 l 350 176 m 689 1218 l 871 1218 l 871 1036 l 689 1036 l 689 1218 m 342 1218 l 524 1218 l 524 1036 l 342 1036 l 342 1218 z "},"ù":{"ha":1389,"x_min":168,"x_max":1044,"o":"m 168 871 l 350 871 l 350 176 l 863 176 l 863 871 l 1044 871 l 1044 -6 l 342 -6 l 342 168 l 168 168 l 168 871 m 342 1218 l 524 1218 l 524 1044 l 697 1044 l 697 863 l 515 863 l 515 1036 l 342 1036 l 342 1218 z "},"ú":{"ha":1389,"x_min":168,"x_max":1044,"o":"m 168 871 l 350 871 l 350 176 l 863 176 l 863 871 l 1044 871 l 1044 -6 l 342 -6 l 342 168 l 168 168 l 168 871 m 515 1044 l 689 1044 l 689 1218 l 871 1218 l 871 1036 l 697 1036 l 697 863 l 515 863 l 515 1044 z "},"û":{"ha":1389,"x_min":168,"x_max":1044,"o":"m 168 871 l 342 871 l 342 1044 l 515 1044 l 515 1218 l 697 1218 l 697 1044 l 871 1044 l 871 871 l 1044 871 l 1044 -6 l 342 -6 l 342 168 l 168 168 l 168 871 m 689 1036 l 524 1036 l 524 863 l 350 863 l 350 176 l 863 176 l 863 863 l 689 863 l 689 1036 z "},"ü":{"ha":1389,"x_min":168,"x_max":1044,"o":"m 168 871 l 350 871 l 350 176 l 863 176 l 863 871 l 1044 871 l 1044 -6 l 342 -6 l 342 168 l 168 168 l 168 871 m 342 1218 l 524 1218 l 524 1036 l 342 1036 l 342 1218 m 689 1218 l 871 1218 l 871 1036 l 689 1036 l 689 1218 z "},"&":{"ha":1389,"x_min":-6,"x_max":1218,"o":"m 168 1044 l 342 1044 l 342 1218 l 697 1218 l 697 1044 l 871 1044 l 871 689 l 697 689 l 697 524 l 871 524 l 871 350 l 1036 350 l 1036 697 l 1218 697 l 1218 342 l 1044 342 l 1044 176 l 1218 176 l 1218 -6 l 1036 -6 l 1036 168 l 871 168 l 871 -6 l 168 -6 l 168 168 l -6 168 l -6 350 l 168 350 l 168 524 l 342 524 l 342 689 l 168 689 l 168 1044 m 515 515 l 350 515 l 350 176 l 689 176 l 689 342 l 515 342 l 515 515 m 524 697 l 689 697 l 689 1036 l 524 1036 l 524 697 z "},"!":{"ha":1389,"x_min":342,"x_max":1044,"o":"m 342 1044 l 515 1044 l 515 1218 l 871 1218 l 871 1044 l 1044 1044 l 1044 515 l 871 515 l 871 342 l 515 342 l 515 515 l 342 515 l 342 1044 m 515 176 l 871 176 l 871 -179 l 515 -179 l 515 176 z "},"$":{"ha":1389,"x_min":168,"x_max":1044,"o":"m 168 524 l 342 524 l 342 1218 l 1044 1218 l 1044 689 l 524 689 l 524 524 l 697 524 l 697 342 l 524 342 l 524 176 l 697 176 l 697 -6 l 524 -6 l 524 -179 l 342 -179 l 342 -6 l 168 -6 l 168 176 l 342 176 l 342 342 l 168 342 l 168 524 m 524 1036 l 524 871 l 863 871 l 863 1036 l 524 1036 z "}}}
